Normalized EMG Linear Envelopes
nRows=27
nColumns=17

endheader
time	        VM	        VL	        RF	       GRA	        TA	   ADDLONG	   SEMIMEM	      BFLH	        GM	        GL	       TFL	   GLUTMAX	   GLUTMED	      PIRI	    OBTINT	        QF	
4.8985	  0.068483	  0.040011	  0.047510	  0.525612	  0.136877	  0.695545	  0.194670	  0.223475	  0.618106	  0.523888	  0.383330	  0.056924	  0.856441	  0.000000	  0.000000	  0.000000	
4.899	  0.066428	  0.037892	  0.047130	  0.532394	  0.138848	  0.700890	  0.194578	  0.221255	  0.610803	  0.516135	  0.385700	  0.054996	  0.858132	  0.000000	  0.000000	  0.000000	
4.8995	  0.064420	  0.035830	  0.046787	  0.539152	  0.140889	  0.706090	  0.194452	  0.219038	  0.603494	  0.508406	  0.388026	  0.053116	  0.859565	  0.000000	  0.000000	  0.000000	
4.9	  0.062457	  0.033824	  0.046479	  0.545883	  0.143002	  0.711143	  0.194293	  0.216825	  0.596180	  0.500703	  0.390310	  0.051284	  0.860738	  0.000000	  0.000000	  0.000000	
4.9005	  0.060539	  0.031875	  0.046208	  0.552582	  0.145186	  0.716047	  0.194100	  0.214616	  0.588860	  0.493026	  0.392550	  0.049499	  0.861649	  0.000000	  0.000000	  0.000000	
4.901	  0.058665	  0.029981	  0.045972	  0.559245	  0.147443	  0.720801	  0.193873	  0.212412	  0.581537	  0.485378	  0.394746	  0.047761	  0.862297	  0.000000	  0.000000	  0.000000	
4.9015	  0.056836	  0.028142	  0.045773	  0.565869	  0.149774	  0.725402	  0.193613	  0.210213	  0.574209	  0.477759	  0.396897	  0.046069	  0.862680	  0.000000	  0.000000	  0.000000	
4.902	  0.055050	  0.026357	  0.045610	  0.572451	  0.152179	  0.729849	  0.193319	  0.208020	  0.566877	  0.470172	  0.399005	  0.044422	  0.862798	  0.000000	  0.000000	  0.000000	
4.9025	  0.053307	  0.024625	  0.045482	  0.578987	  0.154660	  0.734142	  0.192992	  0.205833	  0.559542	  0.462618	  0.401068	  0.042819	  0.862651	  0.000000	  0.000000	  0.000000	
4.903	  0.051608	  0.022945	  0.045390	  0.585475	  0.157216	  0.738278	  0.192633	  0.203652	  0.552204	  0.455097	  0.403086	  0.041261	  0.862236	  0.000000	  0.000000	  0.000000	
4.9035	  0.049950	  0.021318	  0.045334	  0.591912	  0.159849	  0.742256	  0.192240	  0.201478	  0.544864	  0.447611	  0.405059	  0.039746	  0.861555	  0.000000	  0.000000	  0.000000	
4.904	  0.048335	  0.019741	  0.045314	  0.598296	  0.162559	  0.746075	  0.191816	  0.199311	  0.537522	  0.440162	  0.406987	  0.038274	  0.860606	  0.000000	  0.000000	  0.000000	
4.9045	  0.046760	  0.018216	  0.045330	  0.604624	  0.165347	  0.749737	  0.191360	  0.197153	  0.530179	  0.432750	  0.408869	  0.036845	  0.859391	  0.000000	  0.000000	  0.000000	
4.905	  0.045227	  0.016740	  0.045382	  0.610893	  0.168213	  0.753240	  0.190873	  0.195002	  0.522837	  0.425377	  0.410706	  0.035457	  0.857910	  0.000000	  0.000000	  0.000000	
4.9055	  0.043734	  0.015312	  0.045469	  0.617101	  0.171159	  0.756588	  0.190356	  0.192861	  0.515497	  0.418045	  0.412496	  0.034110	  0.856167	  0.000000	  0.000000	  0.000000	
4.906	  0.042281	  0.013934	  0.045593	  0.623244	  0.174184	  0.759780	  0.189809	  0.190729	  0.508160	  0.410755	  0.414240	  0.032803	  0.854165	  0.000000	  0.000000	  0.000000	
4.9065	  0.040867	  0.012602	  0.045753	  0.629322	  0.177289	  0.762819	  0.189232	  0.188608	  0.500827	  0.403508	  0.415938	  0.031537	  0.851908	  0.000000	  0.000000	  0.000000	
4.907	  0.039493	  0.011318	  0.045950	  0.635332	  0.180476	  0.765708	  0.188627	  0.186497	  0.493501	  0.396306	  0.417589	  0.030310	  0.849401	  0.000000	  0.000000	  0.000000	
4.9075	  0.038156	  0.010080	  0.046183	  0.641271	  0.183744	  0.768446	  0.187993	  0.184397	  0.486183	  0.389151	  0.419194	  0.029121	  0.846650	  0.000000	  0.000000	  0.000000	
4.908	  0.036858	  0.008887	  0.046453	  0.647138	  0.187095	  0.771037	  0.187331	  0.182308	  0.478876	  0.382044	  0.420752	  0.027971	  0.843661	  0.000000	  0.000000	  0.000000	
4.9085	  0.035597	  0.007738	  0.046759	  0.652931	  0.190528	  0.773482	  0.186642	  0.180231	  0.471582	  0.374985	  0.422263	  0.026858	  0.840441	  0.000000	  0.000000	  0.000000	
4.909	  0.034373	  0.006634	  0.047103	  0.658648	  0.194044	  0.775782	  0.185925	  0.178165	  0.464303	  0.367978	  0.423727	  0.025782	  0.836995	  0.000000	  0.000000	  0.000000	
4.9095	  0.033186	  0.005573	  0.047484	  0.664287	  0.197644	  0.777938	  0.185183	  0.176112	  0.457042	  0.361023	  0.425144	  0.024743	  0.833331	  0.000000	  0.000000	  0.000000	
4.91	  0.032034	  0.004554	  0.047902	  0.669846	  0.201328	  0.779951	  0.184415	  0.174071	  0.449802	  0.354121	  0.426512	  0.023739	  0.829455	  0.000000	  0.000000	  0.000000	
4.9105	  0.030918	  0.003576	  0.048358	  0.675325	  0.205097	  0.781823	  0.183622	  0.172043	  0.442583	  0.347275	  0.427833	  0.022771	  0.825374	  0.000000	  0.000000	  0.000000	
4.911	  0.029837	  0.002640	  0.048851	  0.680720	  0.208950	  0.783554	  0.182805	  0.170027	  0.435390	  0.340486	  0.429105	  0.021837	  0.821094	  0.000000	  0.000000	  0.000000	
4.9115	  0.028791	  0.001744	  0.049383	  0.686030	  0.212888	  0.785145	  0.181966	  0.168024	  0.428223	  0.333755	  0.430329	  0.020937	  0.816621	  0.000000	  0.000000	  0.000000	
